<svg width="16" height="15" viewBox="0 0 16 15" fill="none"
  xmlns="http://www.w3.org/2000/svg">
  <path d="M7.5625 3.375C8.27344 3.375 8.84766 2.80078 8.84766 2.0625C8.84766 1.35156 8.27344 0.75 7.5625 0.75C6.82422 0.75 6.25 1.35156 6.25 2.0625C6.25 2.80078 6.82422 3.375 7.5625 3.375ZM5.83984 10.5391C5.12891 10.0742 4.41797 9.63672 3.67969 9.22656L1.71094 8.16016L0.152344 13.6562C0.015625 14.0938 0.261719 14.5859 0.753906 14.7227C1.24609 14.8594 1.68359 14.5859 1.82031 14.1211L2.83203 10.6211L4.5 11.7148V13.875C4.5 14.3672 4.88281 14.75 5.375 14.75C5.83984 14.75 6.25 14.3672 6.25 13.875V11.25C6.25 10.9766 6.08594 10.7031 5.83984 10.5391ZM8.62891 12.125C8.24609 12.125 7.91797 12.3711 7.78125 12.7266L7.125 14.75H15.8477L13.0859 9.11719C12.7578 8.51562 11.8828 8.46094 11.5273 9.0625L10.6797 10.5391L8.875 9.58203L8.21875 6.24609C8 5.17969 7.31641 4.25 6.33203 3.75781C6.30469 3.75781 6.25 3.75781 6.22266 3.73047C6.16797 3.70312 6.11328 3.70312 6.03125 3.64844C5.62109 3.48438 5.18359 3.375 4.71875 3.375H2.72266C2.44922 3.375 2.23047 3.51172 2.03906 3.67578L0.507812 5.42578C0.507812 5.45312 0.480469 5.48047 0.453125 5.53516C0.207031 5.89062 0.371094 6.41016 0.78125 6.62891L9.96875 11.6875L9.72266 12.125H8.62891ZM2.99609 6.35547L2.36719 6L3.13281 5.125H4.0625L2.99609 6.35547ZM5.56641 7.77734L6.52344 6.62891L6.87891 8.48828L5.56641 7.77734Z" fill="currentColor"/>
</svg>
