<svg width="15" height="16" viewBox="0 0 15 16" fill="none"
  xmlns="http://www.w3.org/2000/svg">
  <path d="M6.57812 0.886719C3.84375 1.43359 1.65625 3.62109 1.13672 6.32812C0.125 11.4414 4.71875 15.2422 8.21875 14.7227C9.33984 14.5312 9.88672 13.2188 9.36719 12.207C8.73828 10.9492 9.64062 9.5 11.0352 9.5H13.2227C14.1797 9.5 14.9727 8.70703 15 7.72266C14.9727 3.42969 11.0625 0.0390625 6.57812 0.886719ZM3.625 9.5C3.13281 9.5 2.75 9.11719 2.75 8.625C2.75 8.16016 3.13281 7.75 3.625 7.75C4.08984 7.75 4.5 8.16016 4.5 8.625C4.5 9.11719 4.08984 9.5 3.625 9.5ZM4.5 6C4.00781 6 3.625 5.61719 3.625 5.125C3.625 4.66016 4.00781 4.25 4.5 4.25C4.96484 4.25 5.375 4.66016 5.375 5.125C5.375 5.61719 4.96484 6 4.5 6ZM8 4.25C7.50781 4.25 7.125 3.86719 7.125 3.375C7.125 2.91016 7.50781 2.5 8 2.5C8.46484 2.5 8.875 2.91016 8.875 3.375C8.875 3.86719 8.46484 4.25 8 4.25ZM11.5 6C11.0078 6 10.625 5.61719 10.625 5.125C10.625 4.66016 11.0078 4.25 11.5 4.25C11.9648 4.25 12.375 4.66016 12.375 5.125C12.375 5.61719 11.9648 6 11.5 6Z" fill="currentColor"/>
</svg>
