<svg width="12" height="15" viewBox="0 0 12 15" fill="none"
  xmlns="http://www.w3.org/2000/svg">
  <path d="M7.75 3.375C8.46094 3.375 9.0625 2.80078 9.0625 2.0625C9.0625 1.35156 8.46094 0.75 7.75 0.75C7.01172 0.75 6.4375 1.35156 6.4375 2.0625C6.4375 2.80078 7.01172 3.375 7.75 3.375ZM3.40234 9.44531L2.99219 10.375H1.1875C0.695312 10.375 0.3125 10.7852 0.3125 11.25C0.3125 11.7422 0.695312 12.125 1.1875 12.125H3.29297C3.8125 12.125 4.30469 11.8242 4.49609 11.332L4.74219 10.7852L4.44141 10.6211C3.97656 10.3203 3.62109 9.91016 3.40234 9.44531ZM10.8125 6.875H9.58203L8.87109 5.42578C8.54297 4.74219 7.91406 4.22266 7.20312 4.03125L5.26172 3.45703C4.46875 3.26562 3.67578 3.45703 3.04688 3.92188L1.95312 4.76953C1.57031 5.04297 1.48828 5.61719 1.78906 6C2.08984 6.38281 2.63672 6.4375 3.01953 6.13672L4.11328 5.31641C4.30469 5.15234 4.57812 5.09766 4.79688 5.15234L5.20703 5.26172L4.16797 7.66797C3.83984 8.46094 4.14062 9.41797 4.87891 9.85547L7.20312 11.2227L6.46484 13.6289C6.32812 14.0938 6.57422 14.5859 7.03906 14.7227C7.12109 14.75 7.20312 14.75 7.3125 14.75C7.66797 14.75 8.02344 14.5312 8.13281 14.1484L9.00781 11.3867C9.17188 10.8125 8.92578 10.2109 8.40625 9.91016L6.73828 8.89844L7.58594 6.76562L8.13281 7.91406C8.35156 8.35156 8.81641 8.625 9.33594 8.625H10.8125C11.2773 8.625 11.6875 8.24219 11.6875 7.75C11.6875 7.28516 11.2773 6.875 10.8125 6.875Z" fill="currentColor"/>
</svg>
