<svg width="16" height="15" viewBox="0 0 16 15" fill="none"
  xmlns="http://www.w3.org/2000/svg">
  <path d="M5.375 14.3125C5.375 14.5586 5.56641 14.75 5.8125 14.75H6.6875C6.90625 14.75 7.125 14.5586 7.125 14.3125V9.5H5.375V14.3125ZM6.25 6.875H4.85547L3.59766 5.64453C3.26953 5.31641 2.83203 5.125 2.36719 5.125H1.875C1.38281 5.125 0.945312 5.31641 0.617188 5.64453C0.289062 5.97266 0.125 6.41016 0.125 6.90234V9.5V13.875C0.125 14.3672 0.507812 14.75 0.972656 14.75C1.46484 14.75 1.84766 14.3672 1.84766 13.875L1.875 11.1406C1.875 11.1406 1.90234 11.168 1.92969 11.168L2.72266 12.3438V13.875C2.72266 14.3672 3.10547 14.75 3.59766 14.75C4.08984 14.75 4.47266 14.3672 4.47266 13.875V12.3438C4.47266 12.0703 4.41797 11.7969 4.28125 11.5508L3.16016 9.88281V7.66797L3.73438 8.24219C3.98047 8.48828 4.30859 8.625 4.66406 8.625H6.25C6.71484 8.625 7.125 8.24219 7.125 7.75C7.125 7.28516 6.71484 6.875 6.25 6.875ZM1.875 4.25C2.58594 4.25 3.1875 3.67578 3.1875 2.9375C3.1875 2.22656 2.58594 1.625 1.875 1.625C1.13672 1.625 0.5625 2.22656 0.5625 2.9375C0.5625 3.67578 1.13672 4.25 1.875 4.25ZM8 1.625L8.84766 7.75L8 11.9609C7.89062 12.5625 8.35547 13 8.875 13C9.28516 13 9.64062 12.7539 9.75 12.1797C9.77734 12.6445 10.1328 13 10.625 13C11.0898 13 11.5 12.6172 11.5 12.125C11.5 12.6172 11.8828 13 12.375 13C12.8398 13 13.25 12.6172 13.25 12.125V0.75H8V1.625ZM5.375 1.625V6H7.125V0.75H6.25C5.75781 0.75 5.375 1.16016 5.375 1.625ZM15 0.75H14.125V14.3125C14.125 14.5586 14.3164 14.75 14.5625 14.75H15.4375C15.6562 14.75 15.875 14.5586 15.875 14.3125V1.625C15.875 1.16016 15.4648 0.75 15 0.75Z" fill="currentColor"/>
</svg>
