<svg width="16" height="15" viewBox="0 0 16 15" fill="none"
  xmlns="http://www.w3.org/2000/svg">
  <path d="M0.125 2.0625C0.125 1.35156 0.699219 0.75 1.4375 0.75H9.3125C10.0234 0.75 10.625 1.35156 10.625 2.0625V6.41016L9.44922 6.875H7.5625C7.31641 6.875 7.125 7.09375 7.125 7.3125V9.0625C7.125 9.08984 7.125 9.11719 7.125 9.14453C7.17969 10.7305 7.78125 13.1094 9.80469 14.668C9.66797 14.7227 9.47656 14.75 9.3125 14.75H6.6875V12.5625C6.6875 11.8516 6.08594 11.25 5.375 11.25C4.63672 11.25 4.0625 11.8516 4.0625 12.5625V14.75H1.4375C0.699219 14.75 0.125 14.1758 0.125 13.4375V2.0625ZM2.3125 6.875C2.06641 6.875 1.875 7.09375 1.875 7.3125V8.1875C1.875 8.43359 2.06641 8.625 2.3125 8.625H3.1875C3.40625 8.625 3.625 8.43359 3.625 8.1875V7.3125C3.625 7.09375 3.40625 6.875 3.1875 6.875H2.3125ZM4.5 8.1875C4.5 8.43359 4.69141 8.625 4.9375 8.625H5.8125C6.03125 8.625 6.25 8.43359 6.25 8.1875V7.3125C6.25 7.09375 6.03125 6.875 5.8125 6.875H4.9375C4.69141 6.875 4.5 7.09375 4.5 7.3125V8.1875ZM1.875 4.6875C1.875 4.93359 2.06641 5.125 2.3125 5.125H3.1875C3.40625 5.125 3.625 4.93359 3.625 4.6875V3.8125C3.625 3.59375 3.40625 3.375 3.1875 3.375H2.3125C2.06641 3.375 1.875 3.59375 1.875 3.8125V4.6875ZM4.9375 3.375C4.69141 3.375 4.5 3.59375 4.5 3.8125V4.6875C4.5 4.93359 4.69141 5.125 4.9375 5.125H5.8125C6.03125 5.125 6.25 4.93359 6.25 4.6875V3.8125C6.25 3.59375 6.03125 3.375 5.8125 3.375H4.9375ZM7.125 4.6875C7.125 4.93359 7.31641 5.125 7.5625 5.125H8.4375C8.65625 5.125 8.875 4.93359 8.875 4.6875V3.8125C8.875 3.59375 8.65625 3.375 8.4375 3.375H7.5625C7.31641 3.375 7.125 3.59375 7.125 3.8125V4.6875ZM11.6914 6.92969C11.8281 6.875 12.0195 6.875 12.1562 6.92969L15.4375 8.24219C15.7109 8.35156 15.875 8.59766 15.875 8.84375C15.875 10.5938 15.1641 13.4648 12.1836 14.7227C12.0195 14.7773 11.8281 14.7773 11.6641 14.7227C8.68359 13.4648 8 10.5938 8 8.84375C8 8.59766 8.13672 8.35156 8.41016 8.24219L11.6914 6.92969ZM11.9375 8.24219V13.3828C13.7969 12.4805 14.4258 10.6758 14.5352 9.28125L11.9375 8.24219Z" fill="currentColor"/>
</svg>
