<svg width="19" height="17" viewBox="0 0 19 17" fill="none"
  xmlns="http://www.w3.org/2000/svg">
  <path d="M0.96875 3.03906H18.0312C18.3594 3.03906 18.6875 2.75195 18.6875 2.38281V0.742188C18.6875 0.414062 18.3594 0.0859375 18.0312 0.0859375H0.96875C0.599609 0.0859375 0.3125 0.414062 0.3125 0.742188V2.38281C0.3125 2.75195 0.599609 3.03906 0.96875 3.03906ZM0.96875 9.60156H18.0312C18.3594 9.60156 18.6875 9.31445 18.6875 8.94531V7.30469C18.6875 6.97656 18.3594 6.64844 18.0312 6.64844H0.96875C0.599609 6.64844 0.3125 6.97656 0.3125 7.30469V8.94531C0.3125 9.31445 0.599609 9.60156 0.96875 9.60156ZM0.96875 16.1641H18.0312C18.3594 16.1641 18.6875 15.877 18.6875 15.5078V13.8672C18.6875 13.5391 18.3594 13.2109 18.0312 13.2109H0.96875C0.599609 13.2109 0.3125 13.5391 0.3125 13.8672V15.5078C0.3125 15.877 0.599609 16.1641 0.96875 16.1641Z" fill="currentColor"/>
</svg>
