<svg width="26" height="26" viewBox="0 0 26 26" fill="none"
  xmlns="http://www.w3.org/2000/svg">
  <path d="M13 8.5C10.5156 8.5 8.5 10.5625 8.5 13C8.5 15.4844 10.5156 17.5 13 17.5C15.4375 17.5 17.5 15.4844 17.5 13C17.5 10.5625 15.4375 8.5 13 8.5ZM24.5312 12.2969L20.0781 10.0938L21.6719 5.35938C21.8594 4.75 21.25 4.14062 20.6406 4.32812L15.9062 5.92188L13.7031 1.46875C13.4219 0.859375 12.5312 0.859375 12.25 1.46875L10.0469 5.92188L5.3125 4.32812C4.70312 4.14062 4.09375 4.75 4.28125 5.35938L5.875 10.0938L1.42188 12.2969C0.8125 12.5781 0.8125 13.4688 1.42188 13.75L5.875 15.9531L4.28125 20.6875C4.09375 21.2969 4.70312 21.9062 5.3125 21.7188L10.0469 20.125L12.25 24.5781C12.5312 25.1875 13.4219 25.1875 13.7031 24.5781L15.9062 20.125L20.6406 21.7188C21.25 21.9062 21.8594 21.2969 21.6719 20.6875L20.0781 15.9531L24.5312 13.75C25.1406 13.4688 25.1406 12.5781 24.5312 12.2969ZM17.2188 17.2656C14.875 19.6094 11.0781 19.6094 8.73438 17.2656C6.39062 14.9219 6.39062 11.125 8.73438 8.78125C11.0781 6.4375 14.875 6.4375 17.2188 8.78125C19.5625 11.125 19.5625 14.9219 17.2188 17.2656Z" fill="currentColor"/>
</svg>
