<svg width="24" height="24" viewBox="0 0 24 24" fill="none"
  xmlns="http://www.w3.org/2000/svg">
  <path d="M12.0234 7.48098C9.54146 7.48098 7.5278 9.54146 7.5278 11.9766C7.5278 14.4585 9.54146 16.4722 12.0234 16.4722C14.4585 16.4722 16.519 14.4585 16.519 11.9766C16.519 9.54146 14.4585 7.48098 12.0234 7.48098ZM23.5434 11.2741L19.0946 9.07317L20.6868 4.34341C20.8741 3.73463 20.2654 3.12585 19.6566 3.31317L14.9268 4.90537L12.7259 0.456585C12.4449 -0.152195 11.5551 -0.152195 11.2741 0.456585L9.07317 4.90537L4.34341 3.31317C3.73463 3.12585 3.12585 3.73463 3.31317 4.34341L4.90537 9.07317L0.456585 11.2741C-0.152195 11.5551 -0.152195 12.4449 0.456585 12.7259L4.90537 14.9268L3.31317 19.6566C3.12585 20.2654 3.73463 20.8741 4.34341 20.6868L9.07317 19.0946L11.2741 23.5434C11.5551 24.1522 12.4449 24.1522 12.7259 23.5434L14.9268 19.0946L19.6566 20.6868C20.2654 20.8741 20.8741 20.2654 20.6868 19.6566L19.0946 14.9268L23.5434 12.7259C24.1522 12.4449 24.1522 11.5551 23.5434 11.2741ZM16.238 16.238C13.8966 18.5795 10.1034 18.5795 7.76195 16.238C5.42049 13.8966 5.42049 10.1034 7.76195 7.76195C10.1034 5.42049 13.8966 5.42049 16.238 7.76195C18.5795 10.1034 18.5795 13.8966 16.238 16.238Z" fill="currentColor"/>
</svg>
