<svg width="13" height="15" viewBox="0 0 13 15" fill="none"
  xmlns="http://www.w3.org/2000/svg">
  <path d="M12.625 10.5938V1.40625C12.625 1.05078 12.3242 0.75 11.9688 0.75H3C1.55078 0.75 0.375 1.92578 0.375 3.375V12.125C0.375 13.5742 1.55078 14.75 3 14.75H11.9688C12.3242 14.75 12.625 14.4766 12.625 14.0938V13.6562C12.625 13.4648 12.5156 13.2734 12.3789 13.1641C12.2422 12.7266 12.2422 11.5234 12.3789 11.1133C12.5156 11.0039 12.625 10.8125 12.625 10.5938ZM3.875 4.41406C3.875 4.33203 3.92969 4.25 4.03906 4.25H9.83594C9.91797 4.25 10 4.33203 10 4.41406V4.96094C10 5.07031 9.91797 5.125 9.83594 5.125H4.03906C3.92969 5.125 3.875 5.07031 3.875 4.96094V4.41406ZM3.875 6.16406C3.875 6.08203 3.92969 6 4.03906 6H9.83594C9.91797 6 10 6.08203 10 6.16406V6.71094C10 6.82031 9.91797 6.875 9.83594 6.875H4.03906C3.92969 6.875 3.875 6.82031 3.875 6.71094V6.16406ZM10.793 13H3C2.50781 13 2.125 12.6172 2.125 12.125C2.125 11.6602 2.50781 11.25 3 11.25H10.793C10.7383 11.7422 10.7383 12.5352 10.793 13Z" fill="currentColor"/>
</svg>
