<svg width="14" height="15" viewBox="0 0 14 15" fill="none"
  xmlns="http://www.w3.org/2000/svg">
  <path d="M12.8516 0.804688L4.10156 3.375C3.74609 3.51172 3.5 3.83984 3.5 4.22266V11.3594C3.19922 11.3047 2.92578 11.2773 2.625 11.25C1.17578 11.25 0 12.043 0 13C0 13.9844 1.17578 14.75 2.625 14.75C4.07422 14.75 5.25 13.9844 5.25 13V6.62891L12.25 4.57812V9.60938C11.9492 9.55469 11.6758 9.52734 11.375 9.5C9.92578 9.5 8.75 10.293 8.75 11.25C8.75 12.2344 9.92578 13 11.375 13C12.8242 13 14 12.2344 14 11.25V1.625C13.9727 1.16016 13.5898 0.777344 13.125 0.777344C13.0156 0.777344 12.9336 0.777344 12.8516 0.804688Z" fill="currentColor"/>
</svg>
