<svg width="14" height="15" viewBox="0 0 14 15" fill="none"
  xmlns="http://www.w3.org/2000/svg">
  <path d="M13.8086 1.29688C13.7539 1.13281 13.6172 0.996094 13.4531 0.941406C12.5781 0.75 11.8945 0.75 11.2109 0.75C8.39453 0.75 6.69922 2.28125 5.44141 4.25H2.57031C2.13281 4.27734 1.61328 4.57812 1.39453 4.98828L0.0546875 7.69531C0.0273438 7.77734 0 7.88672 0 7.96875C0 8.35156 0.273438 8.625 0.65625 8.625H3.47266L2.87109 9.25391C2.54297 9.55469 2.51562 10.1289 2.87109 10.4844L4.26562 11.8789C4.56641 12.1797 5.14062 12.2344 5.49609 11.8789L6.09766 11.2773V14.0938C6.125 14.4766 6.39844 14.75 6.78125 14.75C6.86328 14.75 6.97266 14.7227 7.05469 14.6953L9.76172 13.3555C10.1719 13.1367 10.4727 12.6172 10.4727 12.1797V9.30859C12.4688 8.05078 13.9727 6.35547 13.9727 3.53906C14 2.85547 14 2.17188 13.8086 1.29688ZM10.5 5.34375C9.87109 5.34375 9.40625 4.87891 9.40625 4.25C9.40625 3.64844 9.87109 3.15625 10.5 3.15625C11.1016 3.15625 11.5938 3.64844 11.5938 4.25C11.5938 4.87891 11.1016 5.34375 10.5 5.34375Z" fill="currentColor"/>
</svg>
