<svg width="24" height="24" viewBox="0 0 24 24" fill="none"
  xmlns="http://www.w3.org/2000/svg">
  <path d="M13.6875 4.6875C13.6875 3.77344 12.9141 3 12 3C11.0508 3 10.3125 3.77344 10.3125 4.6875C10.3125 5.63672 11.0508 6.375 12 6.375C12.9141 6.375 13.6875 5.63672 13.6875 4.6875ZM12 17.625C11.0508 17.625 10.3125 18.3984 10.3125 19.3125C10.3125 20.2617 11.0508 21 12 21C12.9141 21 13.6875 20.2617 13.6875 19.3125C13.6875 18.3984 12.9141 17.625 12 17.625ZM19.3125 10.3125C18.3633 10.3125 17.625 11.0859 17.625 12C17.625 12.9492 18.3633 13.6875 19.3125 13.6875C20.2266 13.6875 21 12.9492 21 12C21 11.0859 20.2266 10.3125 19.3125 10.3125ZM6.375 12C6.375 11.0859 5.60156 10.3125 4.6875 10.3125C3.73828 10.3125 3 11.0859 3 12C3 12.9492 3.73828 13.6875 4.6875 13.6875C5.60156 13.6875 6.375 12.9492 6.375 12ZM6.79688 15.5156C5.88281 15.5156 5.10938 16.2539 5.10938 17.2031C5.10938 18.1172 5.88281 18.8906 6.79688 18.8906C7.74609 18.8906 8.48438 18.1172 8.48438 17.2031C8.48438 16.2539 7.74609 15.5156 6.79688 15.5156ZM17.168 15.5156C16.2188 15.5156 15.4805 16.2539 15.4805 17.2031C15.4805 18.1172 16.2188 18.8906 17.168 18.8906C18.082 18.8906 18.8555 18.1172 18.8555 17.2031C18.8555 16.2539 18.082 15.5156 17.168 15.5156ZM6.79688 5.14453C5.88281 5.14453 5.10938 5.91797 5.10938 6.83203C5.10938 7.78125 5.88281 8.51953 6.79688 8.51953C7.74609 8.51953 8.48438 7.78125 8.48438 6.83203C8.48438 5.91797 7.74609 5.14453 6.79688 5.14453Z" fill="currentColor"/>
</svg>
