<svg width="18" height="16" viewBox="0 0 18 16" fill="none"
  xmlns="http://www.w3.org/2000/svg">
  <path d="M5.88281 7.47656C4.89844 7.75 4.24219 8.59766 4.32422 9.5C4.625 9.14453 5.11719 8.84375 5.69141 8.65234L5.88281 7.47656ZM2.84766 8.81641L2 3.92188C1.97266 3.86719 2 3.83984 2 3.83984C3.58594 2.96484 5.36328 2.5 7.16797 2.5C7.19531 2.5 7.25 2.5 7.30469 2.52734C7.6875 2.14453 8.15234 1.89844 8.69922 1.81641C9.21875 1.70703 9.73828 1.67969 10.2578 1.65234C9.98438 1.26953 9.60156 0.996094 9.13672 0.914062C8.48047 0.804688 7.82422 0.75 7.16797 0.75C5.0625 0.75 3.01172 1.29688 1.15234 2.33594C0.496094 2.69141 0.140625 3.45703 0.277344 4.22266L1.125 9.14453C1.53516 11.332 4.87109 13.0273 6.73047 13.0273C6.8125 13.0273 6.89453 13 7.00391 13C6.62109 12.5352 6.21094 11.8789 5.91016 11.1406C4.625 10.7852 3.01172 9.74609 2.84766 8.81641ZM5.52734 5.07031C5.5 4.96094 5.47266 4.85156 5.41797 4.76953C5.19922 5.01562 4.84375 5.17969 4.43359 5.26172C4.05078 5.34375 3.66797 5.26172 3.36719 5.125C3.33984 5.23438 3.33984 5.34375 3.36719 5.45312C3.47656 6.05469 4.05078 6.4375 4.625 6.32812C5.22656 6.21875 5.63672 5.67188 5.52734 5.07031ZM16.8203 4.05859C14.3867 2.71875 11.5977 2.22656 8.83594 2.66406C8.09766 2.77344 7.49609 3.375 7.35938 4.14062L6.51172 9.0625C6.07422 11.4414 9.10938 14.4219 10.832 14.7227C12.5547 15.0234 16.4102 13.2461 16.8477 10.8672L17.6953 5.97266C17.832 5.20703 17.4766 4.44141 16.8203 4.05859ZM9.35547 6.71094C9.46484 6.10938 10.0391 5.72656 10.6133 5.83594C11.2148 5.94531 11.625 6.49219 11.5156 7.09375C11.4883 7.20312 11.4609 7.3125 11.4062 7.39453C11.1875 7.17578 10.832 6.98438 10.4219 6.90234C10.0391 6.84766 9.65625 6.90234 9.35547 7.03906C9.32812 6.92969 9.32812 6.82031 9.35547 6.71094ZM11.2969 12.1523C9.76562 11.8789 8.72656 10.5391 8.83594 9.0625C9.41016 9.77344 10.3945 10.3203 11.5703 10.5391C12.7461 10.7305 13.8672 10.5391 14.6328 10.0742C14.25 11.4961 12.8008 12.4258 11.2969 12.1523ZM14.8516 8.02344C14.6328 7.77734 14.2773 7.58594 13.8945 7.50391C13.4844 7.44922 13.1016 7.50391 12.8008 7.64062C12.8008 7.55859 12.7734 7.42188 12.8008 7.3125C12.9102 6.73828 13.4844 6.32812 14.0586 6.4375C14.6602 6.54688 15.0703 7.12109 14.9609 7.69531C14.9336 7.80469 14.9062 7.91406 14.8516 8.02344Z" fill="currentColor"/>
</svg>
